Coordinates
version=1
nRows=19
nColumns=24
inDegrees=yes

Units are S.I. units (second, meters, Newtons, ...)
Angles are in degrees.

endheader
time	pelvis_tilt	pelvis_list	pelvis_rotation	pelvis_tx	pelvis_ty	pelvis_tz	hip_flexion_r	hip_adduction_r	hip_rotation_r	knee_angle_r	ankle_angle_r	subtalar_angle_r	mtp_angle_r	hip_flexion_l	hip_adduction_l	hip_rotation_l	knee_angle_l	ankle_angle_l	subtalar_angle_l	mtp_angle_l	lumbar_extension	lumbar_bending	lumbar_rotation
      5.12000000	     -3.46225726	     -0.13907314	      1.07573668	      1.00100676	      0.67757381	     -0.10766284	      3.13653108	      6.83836133	     -1.72752530	     -7.08629333	     13.20764174	    -14.83108672	      0.00000000	     26.39223117	     -0.01906751	     -2.46563855	    -57.00083392	      6.15394551	    -11.41292633	      0.00000000	    -11.99354609	     -4.08246930	      5.91966126
      5.13000000	     -3.50014583	      0.02939713	      0.10661646	      1.01248072	      0.67765683	     -0.10607235	      1.54769989	      6.72098101	     -1.79664848	     -6.03406460	     14.17628018	    -12.99259288	      0.00000000	     27.56244652	      0.04103047	     -2.97254379	    -53.99017446	      6.76984129	    -11.35255647	      0.00000000	    -12.23080112	     -4.43850918	      6.68056825
      5.14000000	     -3.74492959	      0.08790719	     -0.97301314	      1.02402943	      0.67716612	     -0.10437772	      0.13467205	      6.71710139	     -1.35789149	     -4.90159651	     14.47734464	    -12.17758764	      0.00000000	     28.75609328	     -0.13823941	     -3.53412640	    -50.54863609	      7.04413976	    -11.84983357	      0.00000000	    -12.16671450	     -4.70557542	      7.61017235
      5.15000000	     -3.80099566	      0.09209374	     -1.98417451	      1.03577926	      0.67655416	     -0.10282594	     -1.46403890	      6.71184372	     -1.31986131	     -3.83551235	     15.10584135	    -10.78309144	      0.00000000	     29.47140534	     -0.31946764	     -3.84914668	    -46.53953487	      6.72883382	    -13.13858987	      0.00000000	    -12.28278367	     -4.90069520	      8.56824178
      5.16000000	     -3.99800214	     -0.06187807	     -3.10192939	      1.04769507	      0.67547857	     -0.10113874	     -2.97133574	      6.85437824	     -0.91196538	     -2.73019001	     15.52996321	     -9.75827225	      0.00000000	     30.09974227	     -0.82214665	     -4.27569037	    -42.14119784	      6.47639605	    -13.98566707	      0.00000000	    -12.15635645	     -4.93801228	      9.77268399
      5.17000000	     -4.19647449	     -0.31409434	     -4.22130175	      1.05984846	      0.67413917	     -0.09948264	     -4.51000280	      7.05037076	     -0.74779564	     -1.62070213	     15.81130367	     -8.56797348	      0.00000000	     30.43752374	     -1.43926932	     -4.62200333	    -37.25477975	      5.91445370	    -15.02244515	      0.00000000	    -11.96201591	     -4.86520424	     11.03867038
      5.18000000	     -4.50308159	     -0.66882703	     -5.42882762	      1.07221072	      0.67245159	     -0.09772314	     -5.99638668	      7.31304085	     -0.21728118	     -0.50907654	     16.03733308	     -7.63814180	      0.00000000	     30.62067344	     -2.27930607	     -5.12239624	    -32.01075356	      5.40724852	    -15.15297196	      0.00000000	    -11.57698613	     -4.67441501	     12.50339676
      5.19000000	     -4.84077691	     -1.09287587	     -6.63510750	      1.08482126	      0.67054633	     -0.09600462	     -7.45655520	      7.58995278	      0.30002404	      0.51177453	     16.08498755	     -6.68783054	      0.00000000	     30.55311474	     -3.18737247	     -5.64654619	    -26.40228416	      4.66336540	    -14.78558572	      0.00000000	    -11.10438776	     -4.36525733	     13.99093186
      5.20000000	     -5.09726438	     -1.50381656	     -7.80943969	      1.09774881	      0.66852032	     -0.09434074	     -9.00823739	      7.77645385	      0.85669569	      1.44390291	     16.27824514	     -5.63943890	      0.00000000	     30.15659070	     -4.03009893	     -6.18602555	    -20.58166212	      3.66568990	    -13.83375102	      0.00000000	    -10.67342743	     -4.04824151	     15.46884749
      5.21000000	     -5.33001320	     -1.94024549	     -8.99425878	      1.11093157	      0.66636819	     -0.09267360	    -10.48194887	      7.91612749	      1.45459793	      2.08780223	     16.46247135	     -4.58424920	      0.00000000	     29.58141516	     -4.87460686	     -6.85610771	    -14.84051424	      2.57978014	    -12.14136798	      0.00000000	    -10.23851513	     -3.69183377	     16.90582439
      5.22000000	     -5.40911871	     -2.39669293	    -10.09607693	      1.12436382	      0.66424285	     -0.09108020	    -11.94231193	      8.00198176	      1.84463426	      2.33540910	     16.76178094	     -3.31876996	      0.00000000	     28.86716267	     -5.67409232	     -7.97134123	     -9.64951891	      1.77690864	     -9.22501943	      0.00000000	     -9.97791489	     -3.31271999	     18.17327767
      5.23000000	     -5.50392069	     -2.71591682	    -11.15940358	      1.13802155	      0.66207489	     -0.08957669	    -13.15641107	      7.89242566	      2.32770794	      2.14971985	     17.15376577	     -2.20041312	      0.00000000	     28.26639301	     -6.25114905	     -9.37972147	     -5.27713451	      1.22799735	     -5.86665361	      0.00000000	     -9.64468026	     -3.07068133	     19.36477254
      5.24000000	     -5.45376667	     -2.84186868	    -12.05096411	      1.15188593	      0.66008793	     -0.08829456	    -14.23398770	      7.54339816	      2.74630574	      1.49694743	     17.58768255	     -1.30316280	      0.00000000	     27.69586282	     -6.45343017	    -10.90687556	     -1.91353006	      0.74150745	     -2.61379226	      0.00000000	     -9.43971402	     -3.05329106	     20.24937915
      5.25000000	     -5.29294693	     -2.73744263	    -12.77005609	      1.16596023	      0.65830166	     -0.08724345	    -15.10662699	      6.94442726	      3.08829147	      0.35708414	     18.00834526	     -0.65169925	      0.00000000	     27.21774484	     -6.26436542	    -12.33633275	      0.32490533	      0.27389753	     -0.00789299	      0.00000000	     -9.29953445	     -3.29965355	     20.84511343
      5.26000000	     -4.92827795	     -2.46581254	    -13.28997611	      1.18028193	      0.65680431	     -0.08640919	    -15.90542804	      6.16925719	      3.40904958	     -1.23347215	     18.30615571	     -0.40646854	      0.00000000	     26.69080394	     -5.74370964	    -13.36442198	      1.46715819	     -0.34377187	      1.39563114	      0.00000000	     -9.33147836	     -3.77319302	     21.13637305
      5.27000000	     -4.56213600	     -1.99592102	    -13.69936306	      1.19491581	      0.65543022	     -0.08569414	    -16.41849052	      5.22977963	      3.67111974	     -3.28142284	     18.35527916	     -0.40367142	      0.00000000	     26.35870123	     -4.99211321	    -14.26930160	      1.44748224	     -0.96230686	      1.95037382	      0.00000000	     -9.23769596	     -4.47033745	     21.26966230
      5.28000000	     -4.18511518	     -1.39291863	    -13.88734130	      1.20993027	      0.65414866	     -0.08515096	    -16.72230736	      4.23310561	      3.72767124	     -5.70146898	     18.03798274	     -0.62717822	      0.00000000	     26.17312714	     -4.04881069	    -14.88414609	      0.44291890	     -1.70195322	      1.84800878	      0.00000000	     -9.04913582	     -5.30094933	     21.01859408
      5.29000000	     -3.60887365	     -0.71004239	    -13.99571976	      1.22530667	      0.65314263	     -0.08466094	    -17.03462310	      3.13797438	      3.55859848	     -8.47301974	     17.40610347	     -0.84047906	      0.00000000	     25.85119644	     -2.99360810	    -15.25757473	     -1.29827809	     -2.42065201	      1.17773229	      0.00000000	     -8.99378684	     -6.28272861	     20.69899507
      5.30000000	     -3.03001143	      0.10041696	    -13.99617966	      1.24103149	      0.65225711	     -0.08429915	    -17.14767223	      1.92890810	      3.06176610	    -11.55242927	     16.29501342	     -0.86697034	      0.00000000	     25.41594242	     -1.71521668	    -14.44613324	     -3.18637751	     -3.57198767	     -1.33027598	      0.00000000	     -8.83804484	     -7.39764630	     20.16802079
